<?xml version="1.0" encoding="UTF-8" standalone="no"?>
<svg
   xmlns:dc="http://purl.org/dc/elements/1.1/"
   xmlns:cc="http://creativecommons.org/ns#"
   xmlns:rdf="http://www.w3.org/1999/02/22-rdf-syntax-ns#"
   xmlns:svg="http://www.w3.org/2000/svg"
   xmlns="http://www.w3.org/2000/svg"
   xmlns:sodipodi="http://sodipodi.sourceforge.net/DTD/sodipodi-0.dtd"
   xmlns:inkscape="http://www.inkscape.org/namespaces/inkscape"
   inkscape:version="1.0 (4035a4fb49, 2020-05-01)"
   sodipodi:docname="collision_green_24dp.svg"
   id="svg863"
   version="1.1"
   fill="#000000"
   width="24px"
   viewBox="0 0 24 24"
   height="24px">
  <metadata
     id="metadata869">
    <rdf:RDF>
      <cc:Work
         rdf:about="">
        <dc:format>image/svg+xml</dc:format>
        <dc:type
           rdf:resource="http://purl.org/dc/dcmitype/StillImage" />
        <dc:title></dc:title>
      </cc:Work>
    </rdf:RDF>
  </metadata>
  <defs
     id="defs867">
    <marker
       inkscape:isstock="true"
       style="overflow:visible"
       id="marker1762"
       refX="0.0"
       refY="0.0"
       orient="auto"
       inkscape:stockid="Arrow1Lstart">
      <path
         transform="scale(0.8) translate(12.5,0)"
         style="fill-rule:evenodd;stroke:#ffffff;stroke-width:1pt;stroke-opacity:1;fill:#0da50e;fill-opacity:1"
         d="M 0.0,0.0 L 5.0,-5.0 L -12.5,0.0 L 5.0,5.0 L 0.0,0.0 z "
         id="path1760" />
    </marker>
    <marker
       inkscape:isstock="true"
       style="overflow:visible"
       id="Arrow1Lstart"
       refX="0.0"
       refY="0.0"
       orient="auto"
       inkscape:stockid="Arrow1Lstart">
      <path
         transform="scale(0.8) translate(12.5,0)"
         style="fill-rule:evenodd;stroke:#ffffff;stroke-width:1pt;stroke-opacity:1;fill:#0da50e;fill-opacity:1"
         d="M 0.0,0.0 L 5.0,-5.0 L -12.5,0.0 L 5.0,5.0 L 0.0,0.0 z "
         id="path1484" />
    </marker>
  </defs>
  <sodipodi:namedview
     inkscape:current-layer="svg863"
     inkscape:window-maximized="1"
     inkscape:window-y="-8"
     inkscape:window-x="-8"
     inkscape:cy="18.577344"
     inkscape:cx="15.052646"
     inkscape:zoom="15.3125"
     showgrid="false"
     id="namedview865"
     inkscape:window-height="992"
     inkscape:window-width="1920"
     inkscape:pageshadow="2"
     inkscape:pageopacity="0"
     guidetolerance="10"
     gridtolerance="10"
     objecttolerance="10"
     borderopacity="1"
     bordercolor="#666666"
     pagecolor="#ffffff"
     inkscape:document-rotation="0" />
  <path
     id="path859"
     fill="none"
     d="M0 0h24v24H0z" />
  <path
     id="path1458"
     d="m 9.3288314,23.027392 c -0.1347693,-0.06047 -0.2333762,-0.153559 -0.2658802,-0.25106 -0.029475,-0.08845 -0.00548,-0.2961 0.1337214,-1.160486 0.093298,-0.579014 0.1983439,-1.230947 0.2334294,-1.448734 0.035072,-0.217791 0.1447667,-0.89343 0.2437732,-1.501424 0.098988,-0.607992 0.176421,-1.109581 0.1720593,-1.114642 -0.00435,-0.0052 -0.4323151,0.147142 -0.951008,0.338231 -0.5186978,0.191091 -0.9629209,0.347434 -0.9871594,0.347434 -0.024235,0 -0.069207,-0.03798 -0.09994,-0.08438 -0.053952,-0.08152 -0.052534,-0.08904 0.042827,-0.222738 0.054276,-0.07609 0.3378008,-0.429146 0.63008,-0.784549 0.2922778,-0.355399 0.8689161,-1.060253 1.2814141,-1.566334 1.7776808,-2.180969 2.2400498,-2.739883 2.3023648,-2.7831 0.125917,-0.08734 0.08313,-0.132697 1.397638,1.481492 0.368969,0.453087 1.220669,1.494766 1.699596,2.078702 0.126529,0.154261 0.469621,0.572412 0.762435,0.929212 0.292815,0.3568 0.549712,0.680764 0.570881,0.719924 0.03069,0.05673 0.02769,0.08752 -0.01483,0.151484 -0.02923,0.04417 -0.07425,0.08027 -0.100106,0.08027 -0.02583,0 -0.471735,-0.154979 -0.990902,-0.344378 -0.79531,-0.290157 -0.945439,-0.33562 -0.953482,-0.288735 -0.0079,0.04635 0.267773,1.79126 0.710982,4.499444 0.0892,0.545098 0.08946,0.551131 0.02762,0.676465 -0.04312,0.0874 -0.108341,0.149408 -0.211124,0.200702 l -0.148717,0.07423 -2.717938,-0.0024 c -1.494866,-0.0013 -2.7404376,-0.01246 -2.7679381,-0.02475 z m 9.4333366,-6.995068 c -0.2651,-0.174365 -1.983848,-1.273345 -3.816667,-2.44041 -0.77749,-0.495073 -0.972559,-0.6291 -0.766666,-0.526763 0.055,0.02734 0.272499,0.131388 0.483333,0.231235 0.637527,0.301905 1.31431,0.625343 2.016666,0.963782 0.366665,0.176683 0.846668,0.407044 1.066667,0.511915 1.390076,0.662628 1.710045,0.82046 1.73085,0.853788 0.0129,0.02047 -0.04887,0.163383 -0.137091,0.317432 -0.119855,0.209233 -0.177289,0.279484 -0.227087,0.277729 -0.03666,-0.0013 -0.194161,-0.08621 -0.349999,-0.188705 z M 4.6110682,16.132556 c -0.018947,-0.01324 -0.084396,-0.10245 -0.1454762,-0.198018 -0.1797554,-0.28126 -0.1632776,-0.298915 0.6404579,-0.685657 0.3700337,-0.178055 1.4527927,-0.7016 2.4061259,-1.16343 1.8264255,-0.884789 2.2166667,-1.069201 2.2166667,-1.047507 0,0.0074 -0.1837609,0.128212 -0.4083314,0.268645 -0.2245851,0.140439 -0.8658363,0.547345 -1.4250019,0.904239 -0.5591657,0.356894 -1.3541666,0.861801 -1.7666678,1.122013 -0.4124995,0.260213 -0.8716572,0.552281 -1.0203518,0.64904 -0.2582161,0.16803 -0.4082266,0.213475 -0.4974101,0.15067 z m -1.948908,-3.835538 c -0.057194,-0.05662 -0.066659,-0.109998 -0.066659,-0.375825 0,-0.256461 0.011126,-0.323245 0.063998,-0.387729 0.060403,-0.07353 0.082364,-0.07741 0.3916649,-0.06926 0.2805293,0.0074 2.0998472,0.114962 4.0443451,0.239111 1.2408461,0.07922 3.1814648,0.197989 3.2950628,0.201651 0.296609,0.0096 -0.258131,0.0618 -1.1783945,0.110987 -0.53167,0.02841 -1.34167,0.07324 -1.8000038,0.0996 -0.4583337,0.02637 -1.2458351,0.07102 -1.7499997,0.09919 -0.5041664,0.02819 -1.2764622,0.07307 -1.716209,0.09975 -1.0879414,0.06601 -1.2010086,0.06445 -1.2837941,-0.01748 z m 17.0000088,-0.018 c -0.650834,-0.04193 -1.595835,-0.100243 -2.1,-0.129569 -0.504169,-0.02933 -1.111667,-0.06664 -1.350001,-0.08294 -0.238333,-0.0163 -0.894585,-0.05586 -1.458334,-0.08794 -0.563751,-0.03207 -1.024989,-0.06635 -1.024973,-0.07617 1.5e-5,-0.0099 1.718851,-0.117787 3.819639,-0.239922 3.395971,-0.197436 3.829923,-0.216784 3.912601,-0.174461 0.122433,0.06269 0.134399,0.102114 0.134399,0.44297 0,0.258936 -0.0079,0.295894 -0.07714,0.360283 -0.09864,0.09174 -0.258264,0.09068 -1.856186,-0.01229 z M 12.052533,11.166834 C 11.950287,11.071969 11.784709,10.873939 11.010936,9.9211493 10.664567,9.4946466 10.290649,9.0353686 10.180004,8.9005301 10.06936,8.7656929 9.7838322,8.4161972 9.5454977,8.1238735 9.3071647,7.8315504 9.026866,7.488971 8.9226156,7.3625864 8.0374765,6.289528 7.7954964,5.9816491 7.7954964,5.9285092 c 0,-0.076933 0.086766,-0.1654946 0.1607139,-0.1640411 C 7.9869756,5.7650719 8.4246622,5.9182732 8.92883,6.104914 9.5153866,6.3220541 9.8490594,6.4302489 9.8553883,6.4053528 9.8650631,6.3676941 9.7904062,5.8928644 9.2913965,2.8132366 9.1504352,1.9433185 9.0646154,1.3225045 9.0765846,1.2593467 9.0968531,1.1525448 9.1864738,1.0499588 9.3183036,0.9827436 9.3704993,0.956131 10.167814,0.9456358 12.134972,0.9456737 c 3.073739,6.612e-5 2.907803,-0.0128338 3.042765,0.2366735 l 0.06556,0.1212321 -0.359691,2.2216457 c -0.197835,1.2219053 -0.38631,2.3812751 -0.418835,2.5763771 -0.03255,0.1951026 -0.0567,0.3547314 -0.05369,0.3547314 0.0028,0 0.430268,-0.1559169 0.949501,-0.3464818 0.519231,-0.1905663 0.971657,-0.3464817 1.005386,-0.3464817 0.03372,0 0.08524,0.036126 0.114454,0.080284 0.04247,0.064164 0.04534,0.09466 0.01468,0.1519024 -0.03227,0.059695 -1.154661,1.4507168 -1.916086,2.3746773 -0.112163,0.1361171 -0.577162,0.7078126 -1.033313,1.2704335 -1.194158,1.4728868 -1.256301,1.5483728 -1.296712,1.5751618 -0.06192,0.04103 -0.112873,0.02832 -0.196215,-0.04899 z m 2.087814,-0.346479 c 0.0099,-0.0158 0.180092,-0.130829 0.378232,-0.255547 0.432838,-0.272434 2.285425,-1.4438788 2.660257,-1.6821591 0.271111,-0.1723462 0.823629,-0.5212879 1.555924,-0.9826427 0.223257,-0.1406554 0.424855,-0.2557365 0.447991,-0.2557365 0.04846,0 0.312749,0.4819682 0.312749,0.5703453 0,0.037744 -0.05098,0.081064 -0.141654,0.1203637 -0.07791,0.033768 -0.501666,0.235338 -0.941666,0.4479341 -0.439999,0.2125958 -1.009999,0.4872195 -1.266667,0.6102761 -0.256668,0.123055 -0.796669,0.3829023 -1.200002,0.5774374 -0.403332,0.1945327 -0.875833,0.4205947 -1.050002,0.5023557 -0.17417,0.08177 -0.41937,0.199848 -0.544896,0.262414 -0.12553,0.06257 -0.220143,0.1008 -0.210251,0.08495 z M 9.2621643,10.610854 C 9.0329965,10.500337 8.6954974,10.338794 8.5121623,10.251866 8.3288288,10.164941 7.6163294,9.8228278 6.9288296,9.4916153 6.2413282,9.1604045 5.3916585,8.7521031 5.0406776,8.5842797 4.586483,8.3671064 4.3962465,8.2595711 4.3807509,8.2112402 4.352694,8.1237082 4.5842788,7.711041 4.6812312,7.6758267 c 0.051744,-0.018792 0.1270296,0.011685 0.2999999,0.1214571 0.1270295,0.0806 0.3209311,0.2032907 0.4309299,0.2726452 0.1100021,0.069355 0.6875013,0.4352285 1.283336,0.8130519 0.595833,0.377823 1.5033304,0.9532569 2.0166652,1.2787451 0.8726585,0.553323 1.0195408,0.650613 0.9816672,0.650222 -0.00823,-10e-5 -0.2025039,-0.09057 -0.4316651,-0.201094 z"
     style="fill:#0da50e;fill-opacity:1;stroke:#ffffff;stroke-width:0;stroke-miterlimit:3;stroke-dasharray:none;stroke-opacity:1" />
</svg>
