<?xml version="1.0" encoding="UTF-8" standalone="no"?>
<svg
   xmlns:dc="http://purl.org/dc/elements/1.1/"
   xmlns:cc="http://creativecommons.org/ns#"
   xmlns:rdf="http://www.w3.org/1999/02/22-rdf-syntax-ns#"
   xmlns:svg="http://www.w3.org/2000/svg"
   xmlns="http://www.w3.org/2000/svg"
   xmlns:sodipodi="http://sodipodi.sourceforge.net/DTD/sodipodi-0.dtd"
   xmlns:inkscape="http://www.inkscape.org/namespaces/inkscape"
   inkscape:version="1.0 (4035a4fb49, 2020-05-01)"
   sodipodi:docname="global_green_24dp.svg"
   id="svg863"
   version="1.1"
   fill="#000000"
   width="24px"
   viewBox="0 0 24 24"
   height="24px">
  <metadata
     id="metadata869">
    <rdf:RDF>
      <cc:Work
         rdf:about="">
        <dc:format>image/svg+xml</dc:format>
        <dc:type
           rdf:resource="http://purl.org/dc/dcmitype/StillImage" />
        <dc:title></dc:title>
      </cc:Work>
    </rdf:RDF>
  </metadata>
  <defs
     id="defs867">
    <marker
       inkscape:isstock="true"
       style="overflow:visible"
       id="marker1762"
       refX="0.0"
       refY="0.0"
       orient="auto"
       inkscape:stockid="Arrow1Lstart">
      <path
         transform="scale(0.8) translate(12.5,0)"
         style="fill-rule:evenodd;stroke:#ffffff;stroke-width:1pt;stroke-opacity:1;fill:#0da50e;fill-opacity:1"
         d="M 0.0,0.0 L 5.0,-5.0 L -12.5,0.0 L 5.0,5.0 L 0.0,0.0 z "
         id="path1760" />
    </marker>
    <marker
       inkscape:isstock="true"
       style="overflow:visible"
       id="Arrow1Lstart"
       refX="0.0"
       refY="0.0"
       orient="auto"
       inkscape:stockid="Arrow1Lstart">
      <path
         transform="scale(0.8) translate(12.5,0)"
         style="fill-rule:evenodd;stroke:#ffffff;stroke-width:1pt;stroke-opacity:1;fill:#0da50e;fill-opacity:1"
         d="M 0.0,0.0 L 5.0,-5.0 L -12.5,0.0 L 5.0,5.0 L 0.0,0.0 z "
         id="path1484" />
    </marker>
  </defs>
  <sodipodi:namedview
     inkscape:current-layer="svg863"
     inkscape:window-maximized="1"
     inkscape:window-y="-8"
     inkscape:window-x="-8"
     inkscape:cy="12.501406"
     inkscape:cx="17.162937"
     inkscape:zoom="21.655145"
     showgrid="false"
     id="namedview865"
     inkscape:window-height="992"
     inkscape:window-width="1920"
     inkscape:pageshadow="2"
     inkscape:pageopacity="0"
     guidetolerance="10"
     gridtolerance="10"
     objecttolerance="10"
     borderopacity="1"
     bordercolor="#666666"
     pagecolor="#ffffff" />
  <path
     id="path859"
     fill="none"
     d="M0 0h24v24H0z" />
  <path
     id="path1802"
     d="m 7.9916179,23.818702 c -0.06414,-0.0075 -0.259064,-0.02997 -0.433161,-0.05001 -1.874175,-0.215763 -3.669426,-1.110613 -5.016414,-2.500454 -1.2591214,-1.299177 -2.03638776,-2.888972 -2.30302476,-4.710529 -0.07827,-0.534686 -0.07821,-1.774706 1.03e-4,-2.292595 0.238078,-1.574409 0.80880106,-2.899263 1.78265176,-4.138182 0.236238,-0.3005394 0.987833,-1.0521346 1.288372,-1.2883727 1.238749,-0.9737158 2.559803,-1.542902 4.138182,-1.7829671 0.498941,-0.075887 1.787164,-0.075887 2.286105,0 1.8483021,0.2811197 3.3896261,1.0308571 4.6963031,2.2843976 1.399908,1.3429802 2.243095,3.0267092 2.529923,5.0519132 0.06191,0.43716 0.05212,1.707752 -0.01664,2.159315 -0.283443,1.861341 -1.042761,3.416377 -2.303303,4.71702 -1.318977,1.360938 -2.985119,2.207729 -4.8982811,2.489474 -0.322514,0.0475 -1.511052,0.0889 -1.750816,0.06099 z m 0.299881,-2.729465 v -2.049186 h -0.101274 c -0.206905,0 -0.760875,0.07277 -1.156289,0.151895 -0.491199,0.09829 -1.174804,0.311554 -1.174804,0.366504 0,0.07224 0.237926,0.826272 0.356857,1.130946 0.45328,1.161199 1.077258,2.01182 1.70682,2.326777 0.411773,0.206001 0.36869,0.431173 0.36869,-1.926936 z m 0.968451,1.926936 c 0.651686,-0.326026 1.2785461,-1.200496 1.7395971,-2.426738 0.153088,-0.407162 0.344264,-1.041333 0.320518,-1.063228 -0.04606,-0.04247 -0.824922,-0.264946 -1.167728,-0.333549 -0.3984021,-0.07973 -0.9522661,-0.152607 -1.1598031,-0.152607 h -0.101274 v 2.049186 c 0,2.358109 -0.04308,2.132937 0.36869,1.926936 z m -2.530743,-0.212825 c -0.519315,-0.621503 -1.02865,-1.623001 -1.337755,-2.630414 -0.05904,-0.192423 -0.114207,-0.361767 -0.122589,-0.37632 -0.02104,-0.03652 -0.518116,0.235017 -0.959115,0.523926 -0.374797,0.245537 -0.982943,0.729987 -0.982943,0.783012 0,0.04081 0.292733,0.300084 0.601451,0.53271 0.743488,0.560235 1.703018,1.029197 2.630598,1.285684 0.155771,0.04307 0.295764,0.07941 0.311095,0.08075 0.01533,0.0013 -0.048,-0.08837 -0.140742,-0.199353 z m 3.8840031,0.119949 c 0.676405,-0.170952 1.640911,-0.607931 2.265649,-1.026474 0.375126,-0.251317 0.803802,-0.585981 0.927113,-0.723791 l 0.06664,-0.07448 -0.14994,-0.133865 c -0.54085,-0.482864 -1.775324,-1.267065 -1.814482,-1.152651 -0.0083,0.02439 -0.08308,0.249996 -0.166073,0.501338 -0.317785,0.962414 -0.714657,1.74894 -1.190919,2.360179 -0.151633,0.194607 -0.237325,0.329295 -0.203093,0.319214 0.03257,-0.0096 0.151867,-0.04085 0.265105,-0.06947 z m -7.2832011,-2.68838 c 0.397459,-0.3229 0.944448,-0.67878 1.407901,-0.916003 0.340296,-0.174184 0.360557,-0.190248 0.345092,-0.273606 -0.218792,-1.179325 -0.312607,-1.923681 -0.34962,-2.773989 l -0.02379,-0.546617 -1.940896,-0.0086 -1.94089576,-0.0086 v 0.165163 c 0,0.261004 0.09412,0.917846 0.18886796,1.318118 0.2850544,1.204193 0.9738188,2.540778 1.7205428,3.338804 l 0.09989,0.106754 0.08979,-0.07343 c 0.04938,-0.04039 0.230788,-0.187986 0.403123,-0.327993 z m 11.3001811,0.07832 c 0.724215,-0.886292 1.316731,-2.112353 1.557289,-3.222411 0.08787,-0.405499 0.165948,-0.970884 0.166829,-1.208122 l 6.51e-4,-0.175199 -1.940895,0.0086 -1.940896,0.0086 -0.0081,0.283221 c -0.02219,0.780229 -0.160627,1.993758 -0.311152,2.727585 -0.03518,0.171533 -0.06397,0.332103 -0.06397,0.356822 0,0.02472 0.166762,0.130244 0.370582,0.2345 0.567145,0.290103 1.203893,0.726527 1.707828,1.170538 0.189526,0.16699 0.167804,0.175651 0.461793,-0.184131 z M 6.1200709,18.755458 c 0.616283,-0.187028 1.376971,-0.322453 2.004827,-0.356918 l 0.149941,-0.0082 0.0087,-1.341133 0.0087,-1.341134 h -1.47141 -1.471425 l 0.02272,0.474811 c 0.04869,1.017653 0.261634,2.690598 0.342475,2.690598 0.0092,0 0.191632,-0.0531 0.405473,-0.117993 z m 5.4006101,-0.05694 c 0.153213,-0.761833 0.300213,-2.131276 0.30223,-2.815547 l 5.15e-4,-0.174931 h -1.46646 -1.4664621 l 0.0087,1.341134 0.0087,1.341133 0.349861,0.02477 c 0.612615,0.04337 1.6647371,0.257439 2.0658441,0.420321 0.14119,0.05733 0.160727,0.04376 0.197056,-0.13688 z M 4.7316819,14.575157 c 0.04185,-0.978232 0.176953,-1.999015 0.384814,-2.907439 0.06608,-0.288778 0.11401,-0.530421 0.106517,-0.536984 -0.0075,-0.0066 -0.195214,-0.104033 -0.417158,-0.216602 -0.499595,-0.253389 -0.892619,-0.498675 -1.325991,-0.827548 L 3.1460719,9.8332815 2.9485979,10.046744 c -0.955232,1.032574 -1.6212504,2.266335 -1.9319328,3.578792 -0.09475,0.400272 -0.18886796,1.057115 -0.18886796,1.318119 v 0.165162 l 1.94089576,-0.0086 1.940896,-0.0086 z m 3.559817,-1.111641 v -1.644762 l -0.291551,-0.02277 c -0.658574,-0.05144 -1.448611,-0.202268 -1.947086,-0.371719 l -0.222771,-0.07573 -0.06688,0.288838 c -0.217094,0.937539 -0.403877,2.459225 -0.403877,3.290297 v 0.18061 h 1.466084 1.466084 z m 3.5186751,1.169951 c -0.03196,-0.671304 -0.10801,-1.425287 -0.202486,-2.007535 -0.09427,-0.580972 -0.212941,-1.155019 -0.251764,-1.217836 -0.02168,-0.03508 -0.08553,-0.02624 -0.321229,0.04446 -0.60318,0.180925 -1.2340671,0.298834 -1.8352241,0.342992 l -0.308211,0.02264 v 1.645046 1.645047 h 1.4707601 1.47076 z m 4.544134,0.299881 c -3.56e-4,-0.09621 -0.02167,-0.332811 -0.04736,-0.525776 -0.217063,-1.630264 -0.922061,-3.113103 -2.073303,-4.36083 L 14.036686,9.8332815 13.702893,10.086586 c -0.436203,0.331021 -0.835567,0.579899 -1.337872,0.833743 -0.224415,0.11341 -0.408092,0.22333 -0.408171,0.244266 -6.7e-5,0.02094 0.04467,0.22558 0.09944,0.454764 0.201322,0.842407 0.352862,1.969695 0.386147,2.8725 0.01081,0.293216 0.02543,0.551864 0.03248,0.574771 0.01006,0.0327 0.428596,0.04165 1.946433,0.04165 h 1.933611 l -6.5e-4,-0.17493 z M 8.2834659,9.4161025 c 0.0099,-2.0030402 0.05043,-1.821613 -0.360657,-1.6159529 -0.629653,0.3150026 -1.255114,1.1677713 -1.706569,2.3267774 -0.183503,0.4711 -0.211665,0.582752 -0.155714,0.617332 0.08386,0.05183 0.794902,0.23706 1.163663,0.303145 0.334774,0.05999 0.941415,0.127483 1.01733,0.113179 0.02157,-0.0041 0.03636,-0.618944 0.04195,-1.7444805 z m 1.390816,1.6738105 c 0.6599981,-0.0897 1.4827431,-0.310938 1.4827431,-0.398717 0,-0.08072 -0.294755,-0.8354898 -0.469315,-1.2017568 C 10.31822,8.7141631 9.7550549,8.0478406 9.2599499,7.8001496 c -0.40994,-0.2050846 -0.36869,-0.3846409 -0.36869,1.6048417 0,0.9499007 0.0075,1.7345737 0.01663,1.7437187 0.02353,0.02353 0.338292,-6.16e-4 0.766394,-0.0588 z m -4.214991,-0.652112 c 0,-0.02144 0.08384,-0.250102 0.18631,-0.5081313 0.305544,-0.7693848 0.683899,-1.4383359 1.085042,-1.9184141 0.19455,-0.2328321 0.219303,-0.2264579 -0.301448,-0.077627 -0.452161,0.1292277 -0.890607,0.3034738 -1.353085,0.5377402 -0.409826,0.2075956 -1.06414,0.6228658 -1.313051,0.8333476 l -0.113527,0.096 0.177973,0.1406796 c 0.278456,0.2201069 0.787262,0.54659 1.16766,0.749247 0.345506,0.184068 0.464126,0.221679 0.464126,0.147158 z m 6.7278431,-0.148495 c 0.376174,-0.199973 1.002455,-0.6060338 1.214028,-0.7871373 L 13.529473,9.3923361 13.334522,9.2394506 c -0.701784,-0.5503545 -1.693854,-1.0522872 -2.58096,-1.3058222 -0.52075,-0.1488307 -0.495997,-0.1552049 -0.301447,0.077627 0.401142,0.4800782 0.779497,1.1490293 1.085041,1.9184141 0.10247,0.2580295 0.18631,0.4866895 0.18631,0.5081315 0,0.07421 0.112535,0.03817 0.463668,-0.148495 z"
     style="fill:#4d4d4d;stroke-width:0.999999" />
  <path
     id="path1458"
     d="m 15.056472,13.876329 c -0.08358,-0.03788 -0.144733,-0.0962 -0.164891,-0.157281 -0.01828,-0.05541 -0.0034,-0.185497 0.08293,-0.727007 0.05786,-0.362734 0.123007,-0.771149 0.144766,-0.907586 0.02175,-0.136439 0.08978,-0.559705 0.151181,-0.940594 0.06139,-0.380887 0.109411,-0.695117 0.106706,-0.698288 -0.0027,-0.0032 -0.268109,0.09218 -0.589787,0.211891 -0.321681,0.119713 -0.597175,0.217657 -0.612207,0.217657 -0.01503,0 -0.04292,-0.02379 -0.06198,-0.05286 -0.03346,-0.05107 -0.03258,-0.05578 0.02656,-0.139538 0.03366,-0.04767 0.209494,-0.268847 0.390757,-0.491495 0.181262,-0.2226468 0.538876,-0.6642142 0.794695,-0.9812573 1.102465,-1.3663078 1.389213,-1.7164496 1.427859,-1.7435244 0.07809,-0.054713 0.05155,-0.083134 0.866773,0.9281084 0.228824,0.2838435 0.757023,0.9364228 1.054039,1.3022402 0.07847,0.096639 0.291245,0.3585971 0.47284,0.5821211 0.181595,0.223523 0.340915,0.426477 0.354044,0.451009 0.01903,0.03554 0.01717,0.05483 -0.0092,0.0949 -0.01813,0.02767 -0.04605,0.05029 -0.06208,0.05029 -0.01602,0 -0.292555,-0.09709 -0.614527,-0.215742 -0.493228,-0.181774 -0.586333,-0.210255 -0.591321,-0.180883 -0.0049,0.02904 0.166064,1.122167 0.440929,2.818758 0.05532,0.341486 0.05548,0.345266 0.01713,0.423783 -0.02674,0.05475 -0.06719,0.0936 -0.130933,0.125733 l -0.09223,0.0465 -1.685585,-0.0015 c -0.927071,-7.99e-4 -1.699538,-0.0078 -1.716593,-0.01551 z M 20.906748,9.4941436 C 20.742341,9.3849095 19.676424,8.6964335 18.539764,7.9653043 18.057588,7.6551578 17.936612,7.5711933 18.0643,7.6353048 c 0.03411,0.017126 0.168997,0.082313 0.299749,0.1448609 0.395376,0.1891334 0.815096,0.391758 1.250677,0.6037786 0.227395,0.110686 0.525078,0.2550002 0.661515,0.3206983 0.862084,0.4151152 1.060519,0.513992 1.073422,0.5348704 0.008,0.012834 -0.03031,0.1023541 -0.08502,0.1988612 -0.07433,0.1310781 -0.109949,0.175088 -0.140832,0.1739885 -0.02274,-8.098e-4 -0.120413,-0.054009 -0.217059,-0.1182174 z m -8.776093,0.062794 c -0.01175,-0.00833 -0.05234,-0.064183 -0.09022,-0.1240525 -0.111479,-0.1761994 -0.10126,-0.1872604 0.397193,-0.4295413 0.229484,-0.1115463 0.900979,-0.4395307 1.492208,-0.7288527 1.132695,-0.5542915 1.374711,-0.66982 1.374711,-0.6562284 0,0.00458 -0.113963,0.080316 -0.253235,0.1682964 -0.139281,0.08798 -0.536966,0.3428943 -0.883744,0.5664774 -0.346778,0.2235833 -0.839814,0.5398907 -1.095635,0.7029052 -0.25582,0.1630148 -0.540576,0.3459858 -0.632792,0.406603 -0.160138,0.1052644 -0.25317,0.1337349 -0.308479,0.094389 z M 10.922,7.1540975 c -0.03547,-0.035473 -0.04134,-0.068908 -0.04134,-0.235442 0,-0.1606651 0.0069,-0.2025031 0.03969,-0.2429002 0.03746,-0.046066 0.05108,-0.048499 0.242899,-0.043394 0.173976,0.00463 1.302263,0.072015 2.508183,0.1497948 0.769536,0.049633 1.97305,0.1240341 2.0435,0.1263283 0.183948,0.006 -0.160085,0.038722 -0.730805,0.069532 -0.329726,0.017799 -0.832064,0.04588 -1.116309,0.062402 -0.284245,0.016522 -0.77263,0.044486 -1.085298,0.062144 -0.312669,0.017657 -0.791624,0.045779 -1.064342,0.062493 -0.674709,0.041347 -0.74483,0.040383 -0.796171,-0.010953 z m 10.542902,-0.011284 c -0.403628,-0.026273 -0.989689,-0.062799 -1.302358,-0.081171 -0.312671,-0.018372 -0.689423,-0.041752 -0.83723,-0.051955 -0.147808,-0.010207 -0.554796,-0.034991 -0.904416,-0.055086 -0.349622,-0.020094 -0.635668,-0.041569 -0.635658,-0.047721 9e-6,-0.00616 1.065981,-0.073789 2.368827,-0.1503031 2.106081,-0.1236875 2.375205,-0.1358092 2.426479,-0.1092945 0.07593,0.039265 0.08335,0.063971 0.08335,0.2775069 0,0.1622145 -0.0049,0.185368 -0.04784,0.2257053 -0.06117,0.057467 -0.160168,0.056806 -1.151152,-0.00769 z M 16.745631,6.4460693 C 16.682221,6.3866343 16.579534,6.2625803 16.099664,5.6656879 15.884856,5.3984977 15.652963,5.1107745 15.584344,5.0263029 15.515726,4.9418312 15.33865,4.7228833 15.190842,4.5397519 15.043035,4.3566208 14.869202,4.1420057 14.804549,4.0628299 14.255612,3.3905931 14.105543,3.1977168 14.105543,3.1644263 c 0,-0.048196 0.05381,-0.103677 0.09967,-0.1027665 0.01908,3.783e-4 0.29052,0.096354 0.60319,0.2132785 0.363765,0.1360313 0.570699,0.2038119 0.574624,0.1882153 0.006,-0.023592 -0.0403,-0.3210576 -0.349771,-2.2503459 -0.08742,-0.54497581 -0.140643,-0.93389599 -0.13322,-0.97346236 0.01257,-0.0669085 0.06815,-0.13117476 0.149907,-0.17328304 0.03237,-0.01667222 0.526841,-0.02324664 1.746814,-0.02322282 1.906242,4.141e-5 1.803333,-0.0080444 1.887033,0.14826838 l 0.04066,0.0759478 -0.223071,1.39178994 c -0.122691,0.7654846 -0.239577,1.4917927 -0.259748,1.6140179 -0.02018,0.1222255 -0.03516,0.2222279 -0.0333,0.2222279 0.0018,0 0.266839,-0.097677 0.588852,-0.2170598 0.322012,-0.1193837 0.602593,-0.2170597 0.623511,-0.2170597 0.02091,0 0.05286,0.022632 0.07098,0.050295 0.02634,0.040197 0.02812,0.059302 0.0091,0.095162 -0.02002,0.037397 -0.716087,0.9088277 -1.1883,1.4876594 -0.06956,0.085273 -0.357939,0.4434222 -0.64083,0.7958858 -0.740582,0.9227161 -0.779121,0.9700066 -0.804183,0.9867885 -0.0384,0.025713 -0.07,0.017741 -0.121686,-0.030691 z m 1.2948,-0.217058 c 0.0061,-0.00993 0.111688,-0.081964 0.234569,-0.1600918 0.268433,-0.1706707 1.417352,-0.9045443 1.649812,-1.0538194 0.168135,-0.1079691 0.510791,-0.3265699 0.964938,-0.615594 0.138458,-0.088116 0.263483,-0.1602107 0.277831,-0.1602107 0.03005,0 0.193958,0.3019377 0.193958,0.3573031 0,0.023645 -0.03162,0.050784 -0.08785,0.075404 -0.04832,0.021155 -0.311118,0.1474318 -0.583993,0.2806164 -0.272875,0.1331841 -0.626372,0.3052275 -0.78555,0.3823181 -0.159177,0.07709 -0.49407,0.2398767 -0.744205,0.3617463 -0.250135,0.1218694 -0.543166,0.263489 -0.65118,0.3147097 -0.108015,0.051221 -0.260081,0.1251984 -0.337929,0.1643942 -0.07785,0.039197 -0.136526,0.063147 -0.130391,0.053224 z M 15.015127,6.0977658 C 14.873004,6.0285308 14.663697,5.9273285 14.549998,5.8728718 14.4363,5.8184153 13.994429,5.6040923 13.568062,5.3965989 13.141694,5.1891055 12.614754,4.9333176 12.397086,4.8281816 12.115408,4.6921295 11.997429,4.6247621 11.987819,4.5944843 c -0.0174,-0.054836 0.126222,-0.3133588 0.186349,-0.3354194 0.03209,-0.011773 0.07878,0.00732 0.186051,0.076089 0.07878,0.050493 0.199032,0.1273551 0.26725,0.1708035 0.06822,0.043449 0.426368,0.2726567 0.795887,0.5093507 0.369518,0.236694 0.932321,0.5971858 1.250676,0.8010934 0.541197,0.3466393 0.632289,0.4075876 0.608801,0.4073432 -0.0051,-6.2e-5 -0.125587,-0.056743 -0.267706,-0.1259789 z"
     style="fill:#2ca02c;fill-opacity:1;stroke:#ffffff;stroke-width:0;stroke-miterlimit:3;stroke-dasharray:none;stroke-opacity:1" />
</svg>
