<?xml version="1.0" encoding="UTF-8" standalone="no"?>
<svg
   xmlns:dc="http://purl.org/dc/elements/1.1/"
   xmlns:cc="http://creativecommons.org/ns#"
   xmlns:rdf="http://www.w3.org/1999/02/22-rdf-syntax-ns#"
   xmlns:svg="http://www.w3.org/2000/svg"
   xmlns="http://www.w3.org/2000/svg"
   xmlns:sodipodi="http://sodipodi.sourceforge.net/DTD/sodipodi-0.dtd"
   xmlns:inkscape="http://www.inkscape.org/namespaces/inkscape"
   height="24px"
   viewBox="0 0 24 24"
   width="24px"
   fill="#000000"
   version="1.1"
   id="svg863"
   sodipodi:docname="local_green_24dp.svg"
   inkscape:version="1.0 (4035a4fb49, 2020-05-01)">
  <metadata
     id="metadata869">
    <rdf:RDF>
      <cc:Work
         rdf:about="">
        <dc:format>image/svg+xml</dc:format>
        <dc:type
           rdf:resource="http://purl.org/dc/dcmitype/StillImage" />
        <dc:title />
      </cc:Work>
    </rdf:RDF>
  </metadata>
  <defs
     id="defs867">
    <marker
       inkscape:stockid="Arrow1Lstart"
       orient="auto"
       refY="0.0"
       refX="0.0"
       id="marker1762"
       style="overflow:visible"
       inkscape:isstock="true">
      <path
         id="path1760"
         d="M 0.0,0.0 L 5.0,-5.0 L -12.5,0.0 L 5.0,5.0 L 0.0,0.0 z "
         style="fill-rule:evenodd;stroke:#ffffff;stroke-width:1pt;stroke-opacity:1;fill:#0da50e;fill-opacity:1"
         transform="scale(0.8) translate(12.5,0)" />
    </marker>
    <marker
       inkscape:stockid="Arrow1Lstart"
       orient="auto"
       refY="0.0"
       refX="0.0"
       id="Arrow1Lstart"
       style="overflow:visible"
       inkscape:isstock="true">
      <path
         id="path1484"
         d="M 0.0,0.0 L 5.0,-5.0 L -12.5,0.0 L 5.0,5.0 L 0.0,0.0 z "
         style="fill-rule:evenodd;stroke:#ffffff;stroke-width:1pt;stroke-opacity:1;fill:#0da50e;fill-opacity:1"
         transform="scale(0.8) translate(12.5,0)" />
    </marker>
  </defs>
  <sodipodi:namedview
     inkscape:document-rotation="0"
     pagecolor="#ffffff"
     bordercolor="#666666"
     borderopacity="1"
     objecttolerance="10"
     gridtolerance="10"
     guidetolerance="10"
     inkscape:pageopacity="0"
     inkscape:pageshadow="2"
     inkscape:window-width="1920"
     inkscape:window-height="1052"
     id="namedview865"
     showgrid="false"
     inkscape:zoom="15.3125"
     inkscape:cx="15.052646"
     inkscape:cy="18.577344"
     inkscape:window-x="-1928"
     inkscape:window-y="-8"
     inkscape:window-maximized="1"
     inkscape:current-layer="svg863" />
  <path
     d="M0 0h24v24H0z"
     fill="none"
     id="path859" />
  <path
     style="fill:#4d4d4d;stroke-width:0.999996"
     d="M 7.8498215,23.903831 C 7.7620242,23.860578 7.6370158,23.695966 7.2859128,23.161271 4.7134917,19.243734 3.0065879,16.01249 2.4671569,14.039153 2.2720254,13.325327 2.2211683,12.882786 2.2650832,12.280778 2.3446586,11.189918 2.7072734,10.171824 3.3283159,9.2955997 3.7429593,8.7105823 4.4406047,8.0672809 5.0728666,7.6869432 5.9854609,7.1379713 6.9380614,6.8791715 8.0461448,6.8791715 c 0.9198655,0 1.5879795,0.1413097 2.3886442,0.5052116 0.677478,0.3079133 1.18568,0.6657157 1.737196,1.2230831 0.986825,0.9972939 1.551412,2.2502418 1.655221,3.6733118 0.04391,0.602008 -0.007,1.044549 -0.202074,1.758375 -0.539465,1.973463 -2.246303,5.204532 -4.8191437,9.12271 -0.364657,0.555336 -0.474086,0.6983 -0.5689584,0.743319 -0.1470317,0.06977 -0.2435194,0.06943 -0.3872084,-0.0013 z m 0.7137998,-1.955717 c 2.1522927,-3.345877 3.6949897,-6.299803 4.1916957,-8.02618 0.248962,-0.865302 0.280527,-1.472994 0.118001,-2.271719 C 12.6534,10.569435 11.95544,9.4496339 11.079972,8.7729876 10.44932,8.2855582 9.6019633,7.9147019 8.8297153,7.7881349 c -0.342113,-0.056071 -1.2250278,-0.056071 -1.5671412,0 C 6.4903264,7.9147019 5.6429692,8.2855582 5.0123169,8.7729876 4.1368495,9.4496339 3.4388888,10.569435 3.2189704,11.650215 3.056445,12.44894 3.0880106,13.056632 3.3369718,13.921934 c 0.4942347,1.717787 1.9906462,4.589717 4.1301983,7.926724 0.2677425,0.417591 0.5036424,0.785565 0.5242218,0.81772 0.02058,0.03215 0.04533,0.05847 0.055002,0.05847 0.00967,0 0.2424237,-0.349526 0.5172284,-0.776727 z m -1.152221,-6.176293 c -1.2274788,-0.25645 -2.1800193,-1.17426 -2.4919736,-2.401114 -0.050412,-0.19826 -0.063123,-0.362122 -0.060896,-0.785078 0.00254,-0.481224 0.011861,-0.564297 0.093548,-0.833132 0.3566384,-1.173701 1.2787382,-2.0304051 2.4479872,-2.2743753 0.3417644,-0.071311 0.9503934,-0.071311 1.2921584,0 1.169248,0.2439702 2.0913477,1.1006743 2.4479857,2.2743753 0.08169,0.268835 0.09102,0.351908 0.09355,0.833132 0.0022,0.422956 -0.01048,0.586818 -0.0609,0.785078 -0.429844,1.690491 -2.0900927,2.750304 -3.7614626,2.401114 z m 1.288973,-0.891836 C 10.137042,14.432849 10.800111,12.855468 10.111219,11.52371 9.9458333,11.203989 9.5496193,10.784372 9.2426723,10.603862 8.6635533,10.263292 7.9092474,10.190703 7.2665916,10.413696 6.9266813,10.53164 6.6914802,10.684487 6.3919878,10.982063 c -0.4523308,0.449436 -0.6843765,1.00447 -0.6843765,1.636973 0,1.16606 0.8183423,2.119561 2.0044575,2.335516 0.18152,0.03305 0.7900485,-0.01286 0.9883045,-0.07456 z"
     id="path1482" />
  <path
     style="fill:#2ca02c;fill-opacity:1;stroke:#ffffff;stroke-width:0;stroke-miterlimit:3;stroke-dasharray:none;stroke-opacity:1"
     d="m 14.142188,13.876329 c -0.08358,-0.03788 -0.144733,-0.0962 -0.164891,-0.157281 -0.01828,-0.05541 -0.0034,-0.185497 0.08293,-0.727007 0.05786,-0.362734 0.123007,-0.771149 0.144766,-0.907586 0.02175,-0.136439 0.08978,-0.559705 0.151181,-0.940594 0.06139,-0.380887 0.109411,-0.695117 0.106706,-0.698288 -0.0027,-0.0032 -0.268109,0.09218 -0.589787,0.211891 -0.321681,0.119713 -0.597175,0.217657 -0.612207,0.217657 -0.01503,0 -0.04292,-0.02379 -0.06198,-0.05286 -0.03346,-0.05107 -0.03258,-0.05578 0.02656,-0.139538 0.03366,-0.04767 0.209494,-0.268847 0.390757,-0.491495 0.181262,-0.2226468 0.538876,-0.6642142 0.794695,-0.9812573 1.102465,-1.3663078 1.389213,-1.7164496 1.427859,-1.7435244 0.07809,-0.054713 0.05155,-0.083134 0.866773,0.9281084 0.228824,0.2838435 0.757023,0.9364228 1.054039,1.3022402 0.07847,0.096639 0.291245,0.3585971 0.47284,0.5821211 0.181595,0.223523 0.340915,0.426477 0.354044,0.451009 0.01903,0.03554 0.01717,0.05483 -0.0092,0.0949 -0.01813,0.02767 -0.04605,0.05029 -0.06208,0.05029 -0.01602,0 -0.292555,-0.09709 -0.614527,-0.215742 -0.493228,-0.181774 -0.586333,-0.210255 -0.591321,-0.180883 -0.0049,0.02904 0.166064,1.122167 0.440929,2.818758 0.05532,0.341486 0.05548,0.345266 0.01713,0.423783 -0.02674,0.05475 -0.06719,0.0936 -0.130933,0.125733 l -0.09223,0.0465 -1.685585,-0.0015 c -0.927071,-7.99e-4 -1.699538,-0.0078 -1.716593,-0.01551 z M 19.992464,9.4941436 C 19.828057,9.3849095 18.76214,8.6964335 17.62548,7.9653043 17.143304,7.6551578 17.022328,7.5711933 17.150016,7.6353048 c 0.03411,0.017126 0.168997,0.082313 0.299749,0.1448609 0.395376,0.1891334 0.815096,0.391758 1.250677,0.6037786 0.227395,0.110686 0.525078,0.2550002 0.661515,0.3206983 0.862084,0.4151152 1.060519,0.513992 1.073422,0.5348704 0.008,0.012834 -0.03031,0.1023541 -0.08502,0.1988612 -0.07433,0.1310781 -0.109949,0.175088 -0.140832,0.1739885 -0.02274,-8.098e-4 -0.120413,-0.054009 -0.217059,-0.1182174 z m -8.776093,0.062794 c -0.01175,-0.00833 -0.05234,-0.064183 -0.09022,-0.1240525 -0.111479,-0.1761994 -0.10126,-0.1872604 0.397193,-0.4295413 0.229484,-0.1115463 0.900979,-0.4395307 1.492208,-0.7288527 1.132695,-0.5542915 1.374711,-0.66982 1.374711,-0.6562284 0,0.00458 -0.113963,0.080316 -0.253235,0.1682964 -0.139281,0.08798 -0.536966,0.3428943 -0.883744,0.5664774 -0.346778,0.2235833 -0.839814,0.5398907 -1.095635,0.7029052 -0.25582,0.1630148 -0.540576,0.3459858 -0.632792,0.406603 -0.160138,0.1052644 -0.25317,0.1337349 -0.308479,0.094389 z M 10.007716,7.1540975 c -0.03547,-0.035473 -0.04134,-0.068908 -0.04134,-0.235442 0,-0.1606651 0.0069,-0.2025031 0.03969,-0.2429002 0.03746,-0.046066 0.05108,-0.048499 0.242899,-0.043394 0.173976,0.00463 1.302263,0.072015 2.508183,0.1497948 0.769536,0.049633 1.97305,0.1240341 2.0435,0.1263283 0.183948,0.006 -0.160085,0.038722 -0.730805,0.069532 -0.329726,0.017799 -0.832064,0.04588 -1.116309,0.062402 -0.284245,0.016522 -0.77263,0.044486 -1.085298,0.062144 -0.312669,0.017657 -0.791624,0.045779 -1.064342,0.062493 -0.674709,0.041347 -0.74483,0.040383 -0.796171,-0.010953 z m 10.542902,-0.011284 c -0.403628,-0.026273 -0.989689,-0.062799 -1.302358,-0.081171 -0.312671,-0.018372 -0.689423,-0.041752 -0.83723,-0.051955 -0.147808,-0.010207 -0.554796,-0.034991 -0.904416,-0.055086 -0.349622,-0.020094 -0.635668,-0.041569 -0.635658,-0.047721 9e-6,-0.00616 1.065981,-0.073789 2.368827,-0.1503031 2.106081,-0.1236875 2.375205,-0.1358092 2.426479,-0.1092945 0.07593,0.039265 0.08335,0.063971 0.08335,0.2775069 0,0.1622145 -0.0049,0.185368 -0.04784,0.2257053 -0.06117,0.057467 -0.160168,0.056806 -1.151152,-0.00769 z M 15.831347,6.4460693 C 15.767937,6.3866343 15.66525,6.2625803 15.18538,5.6656879 14.970572,5.3984977 14.738679,5.1107745 14.67006,5.0263029 14.601442,4.9418312 14.424366,4.7228833 14.276558,4.5397519 14.128751,4.3566208 13.954918,4.1420057 13.890265,4.0628299 13.341328,3.3905931 13.191259,3.1977168 13.191259,3.1644263 c 0,-0.048196 0.05381,-0.103677 0.09967,-0.1027665 0.01908,3.783e-4 0.29052,0.096354 0.60319,0.2132785 0.363765,0.1360313 0.570699,0.2038119 0.574624,0.1882153 0.006,-0.023592 -0.0403,-0.3210576 -0.349771,-2.2503459 -0.08742,-0.54497581 -0.140643,-0.93389599 -0.13322,-0.97346236 0.01257,-0.0669085 0.06815,-0.13117476 0.149907,-0.17328304 0.03237,-0.01667222 0.526841,-0.02324664 1.746814,-0.02322282 1.906242,4.141e-5 1.803333,-0.0080444 1.887033,0.14826838 l 0.04066,0.0759478 -0.223071,1.39178994 c -0.122691,0.7654846 -0.239577,1.4917927 -0.259748,1.6140179 -0.02018,0.1222255 -0.03516,0.2222279 -0.0333,0.2222279 0.0018,0 0.266839,-0.097677 0.588852,-0.2170598 0.322012,-0.1193837 0.602593,-0.2170597 0.623511,-0.2170597 0.02091,0 0.05286,0.022632 0.07098,0.050295 0.02634,0.040197 0.02812,0.059302 0.0091,0.095162 -0.02002,0.037397 -0.716087,0.9088277 -1.1883,1.4876594 -0.06956,0.085273 -0.357939,0.4434222 -0.64083,0.7958858 -0.740582,0.9227161 -0.779121,0.9700066 -0.804183,0.9867885 -0.0384,0.025713 -0.07,0.017741 -0.121686,-0.030691 z m 1.2948,-0.217058 c 0.0061,-0.00993 0.111688,-0.081964 0.234569,-0.1600918 0.268433,-0.1706707 1.417352,-0.9045443 1.649812,-1.0538194 0.168135,-0.1079691 0.510791,-0.3265699 0.964938,-0.615594 0.138458,-0.088116 0.263483,-0.1602107 0.277831,-0.1602107 0.03005,0 0.193958,0.3019377 0.193958,0.3573031 0,0.023645 -0.03162,0.050784 -0.08785,0.075404 -0.04832,0.021155 -0.311118,0.1474318 -0.583993,0.2806164 -0.272875,0.1331841 -0.626372,0.3052275 -0.78555,0.3823181 -0.159177,0.07709 -0.49407,0.2398767 -0.744205,0.3617463 -0.250135,0.1218694 -0.543166,0.263489 -0.65118,0.3147097 -0.108015,0.051221 -0.260081,0.1251984 -0.337929,0.1643942 -0.07785,0.039197 -0.136526,0.063147 -0.130391,0.053224 z M 14.100843,6.0977658 C 13.95872,6.0285308 13.749413,5.9273285 13.635714,5.8728718 13.522016,5.8184153 13.080145,5.6040923 12.653778,5.3965989 12.22741,5.1891055 11.70047,4.9333176 11.482802,4.8281816 11.201124,4.6921295 11.083145,4.6247621 11.073535,4.5944843 c -0.0174,-0.054836 0.126222,-0.3133588 0.186349,-0.3354194 0.03209,-0.011773 0.07878,0.00732 0.186051,0.076089 0.07878,0.050493 0.199032,0.1273551 0.26725,0.1708035 0.06822,0.043449 0.426368,0.2726567 0.795887,0.5093507 0.369518,0.236694 0.932321,0.5971858 1.250676,0.8010934 0.541197,0.3466393 0.632289,0.4075876 0.608801,0.4073432 -0.0051,-6.2e-5 -0.125587,-0.056743 -0.267706,-0.1259789 z"
     id="path1458" />
</svg>
