<?xml version="1.0" encoding="UTF-8" standalone="no"?>
<!-- Created with Inkscape (http://www.inkscape.org/) -->

<svg
   width="24"
   height="24"
   viewBox="0 0 6.3500001 6.3500001"
   version="1.1"
   id="svg5"
   inkscape:version="1.2.1 (9c6d41e410, 2022-07-14)"
   sodipodi:docname="move_24dp.svg"
   xml:space="preserve"
   xmlns:inkscape="http://www.inkscape.org/namespaces/inkscape"
   xmlns:sodipodi="http://sodipodi.sourceforge.net/DTD/sodipodi-0.dtd"
   xmlns="http://www.w3.org/2000/svg"
   xmlns:svg="http://www.w3.org/2000/svg"><sodipodi:namedview
     id="namedview7"
     pagecolor="#ffffff"
     bordercolor="#666666"
     borderopacity="1.0"
     inkscape:showpageshadow="2"
     inkscape:pageopacity="0.0"
     inkscape:pagecheckerboard="0"
     inkscape:deskcolor="#d1d1d1"
     inkscape:document-units="mm"
     showgrid="false"
     inkscape:zoom="9.5144352"
     inkscape:cx="4.046483"
     inkscape:cy="14.346621"
     inkscape:window-width="1920"
     inkscape:window-height="1010"
     inkscape:window-x="1913"
     inkscape:window-y="-6"
     inkscape:window-maximized="1"
     inkscape:current-layer="layer1" /><defs
     id="defs2" /><g
     inkscape:label="Layer 1"
     inkscape:groupmode="layer"
     id="layer1"><path
       style="fill:#000000;stroke-width:0.0439725"
       d="M 3.1854979,5.9893932 C 3.1530885,5.9767357 2.4809286,5.3097097 2.4589899,5.2684356 c -0.018413,-0.03464 -0.020075,-0.0976 -0.00344,-0.1301812 0.017392,-0.034058 0.1175267,-0.1353707 0.1514588,-0.1532391 0.034633,-0.01824 0.1082478,-0.020002 0.1410248,-0.00338 0.012918,0.00656 0.082762,0.070547 0.1552061,0.1422114 L 3.0349616,5.254147 V 4.7929761 c 0,-0.4469057 7e-4,-0.4626165 0.02264,-0.5079035 0.032453,-0.066993 0.080621,-0.088993 0.1948407,-0.088993 0.1072144,0 0.1527057,0.019745 0.1882548,0.081709 0.023822,0.041524 0.024019,0.045592 0.024193,0.5033881 l 1.574e-4,0.4615246 0.142472,-0.1406377 C 3.7333585,4.9778423 3.755328,4.9605439 3.7957107,4.953882 c 0.063807,-0.010523 0.1227005,0.020337 0.1946187,0.1019844 0.060402,0.068577 0.076768,0.1163546 0.06136,0.1791498 -0.00938,0.038243 -0.6948871,0.7295968 -0.7448973,0.7512536 -0.039642,0.017164 -0.082527,0.018269 -0.1213115,0.00313 z M 1.2338987,4.0440673 C 1.2220715,4.0376471 1.056246,3.8770216 0.8653989,3.6871196 0.48655261,3.3101503 0.48442712,3.3073431 0.50849452,3.2155894 0.51895472,3.1756839 0.56547452,3.1249596 0.8771858,2.8135171 1.2614005,2.429634 1.2586337,2.431756 1.3520689,2.4492726 c 0.045081,0.00843 0.1559162,0.106592 0.1816983,0.1608858 0.020165,0.04246 0.022372,0.094593 0.00542,0.1279805 -0.00656,0.012909 -0.073018,0.085122 -0.1476929,0.1604704 L 1.255714,3.0356087 h 0.4599477 c 0.4397521,0 0.4618102,9.499e-4 0.5023845,0.021633 0.062372,0.031797 0.085737,0.084641 0.085737,0.1939008 0,0.100814 -0.016097,0.1443725 -0.067611,0.1830006 l -0.034538,0.025896 -0.4759853,0.00538 -0.4759858,0.00538 0.1303307,0.128941 c 0.130533,0.1291415 0.1603553,0.1716506 0.1603553,0.2285708 0,0.052526 -0.078827,0.1555228 -0.1609941,0.2103538 -0.030158,0.020128 -0.1126914,0.023201 -0.145455,0.00542 z m 3.8698651,-0.01815 C 5.0424358,3.9813511 4.9856464,3.9144233 4.9706634,3.8690571 4.9446144,3.7901823 4.9592609,3.7633636 5.1133444,3.6077837 L 5.2543494,3.4654124 H 4.7887483 c -0.514548,0 -0.514238,3.94e-5 -0.5631473,-0.068482 -0.021153,-0.029631 -0.023982,-0.046918 -0.023982,-0.1464203 0,-0.1018672 0.00253,-0.1163322 0.025793,-0.1489608 0.046801,-0.06557 0.049916,-0.065942 0.5566786,-0.065942 H 5.2435954 L 5.1025149,2.8932309 C 5.0167314,2.8066588 4.9584681,2.7390457 4.9538674,2.7207264 4.9355326,2.6477218 4.9748724,2.5724131 5.0735655,2.4915983 5.1384495,2.4384693 5.1987854,2.4313723 5.2628991,2.4693283 5.2883281,2.4843843 5.4599,2.6481762 5.6441654,2.8333119 5.9346032,3.125121 5.9808125,3.1759999 5.9913518,3.215589 6.0157378,3.30719 6.0136158,3.309999 5.6346273,3.6872443 5.4437798,3.8772143 5.2770631,4.0379875 5.2641454,4.0445184 5.2194824,4.0670974 5.1492168,4.0589474 5.1037628,4.0259184 Z M 3.1451827,3.6637111 C 3.0616251,3.6412262 3.0059942,3.6094096 2.946784,3.5502411 2.7831478,3.3867195 2.7838953,3.1135533 2.948434,2.9491354 3.0439666,2.8536702 3.1901043,2.8057788 3.3150339,2.8289958 c 0.1908395,0.035466 0.321304,0.1658391 0.3567944,0.3565449 0.023076,0.1239865 -0.024686,0.2708713 -0.11858,0.3647009 -0.060591,0.060549 -0.1149819,0.091093 -0.2030105,0.1140066 -0.075254,0.019587 -0.130804,0.019443 -0.2050494,-5.751e-4 z m -0.02065,-1.377508 c -0.018747,-0.010377 -0.04536,-0.033249 -0.059138,-0.050826 L 3.0403392,2.2034198 3.0349615,1.7274826 3.0295837,1.2515448 2.9059289,1.3760531 C 2.8379079,1.4445311 2.7691975,1.5074758 2.7532277,1.5159277 2.7160417,1.5356107 2.6442996,1.5356477 2.6069994,1.5160072 2.5730674,1.4981392 2.4729328,1.3968272 2.4555409,1.362768 2.4389259,1.330231 2.4405589,1.267264 2.4589109,1.2325874 2.4673609,1.2166304 2.6306644,1.047986 2.8218115,0.8578255 3.1199327,0.56124276 3.1749654,0.51105616 3.2088335,0.50488536 c 0.08702,-0.0158546 0.088174,-0.0149623 0.4639694,0.35860584 0.1941033,0.1929543 0.3598282,0.3638826 0.3682769,0.3798409 0.017941,0.03389 0.019919,0.091917 0.0045,0.1324193 C 4.0287614,1.4200096 3.9162705,1.5262143 3.8701067,1.5414392 3.7899136,1.567887 3.7637135,1.553697 3.6075282,1.3992283 L 3.4650585,1.2583226 3.465037,1.7198489 c -2.15e-5,0.508458 7.96e-5,0.5075418 -0.067943,0.5574683 -0.042671,0.031311 -0.2215319,0.037142 -0.2725726,0.00888 z"
       id="path310" /></g></svg>
